<svg viewBox="0 0 16 16" fill="none" xmlns="http://www.w3.org/2000/svg">
  <path 
    d="M3.82576 5.15634L7.46312 2.84165C7.79069 2.6332 8.20931 2.6332 8.53688 2.84165L12.1742 5.15634C12.7917 5.54929 12.7917 6.45071 12.1742 6.84366L8.53688 9.15835C8.20931 9.3668 7.79069 9.3668 7.46312 9.15835L3.82575 6.84366C3.20825 6.45071 3.20826 5.54929 3.82576 5.15634Z" 
    stroke="currentColor" 
    stroke-linecap="round"
  />
    <path 
    d="M12 9.5L12.1306 9.58771C12.7539 10.0065 12.7104 10.9373 12.0508 11.2962L8.4779 13.24C8.17992 13.4021 7.82008 13.4021 7.5221 13.24L3.94922 11.2962C3.28955 10.9373 3.2461 10.0065 3.86945 9.58771L4 9.5" 
    stroke="currentColor" 
    stroke-linecap="round"
  />
</svg>