<svg viewBox="0 0 16 16" fill="none" xmlns="http://www.w3.org/2000/svg">
  <path
    d="M5 2H11C12.6569 2 14 3.34315 14 5V11C14 12.6569 12.6569 14 11 14H5C3.34315 14 2 12.6569 2 11V5C2 3.34315 3.34315 2 5 2Z"
    stroke="currentColor"
    stroke-linecap="round"
  />
  <path
    d="M5.17161 10.9498C4.71109 10.4893 4.78769 8.53282 4.78769 8.53282M5.17161 10.9498C5.63213 11.4103 7.58854 11.3337 7.58854 11.3337M5.17161 10.9498L7.29294 8.82847"
    stroke="currentColor"
    stroke-linecap="round"
    stroke-linejoin="round"
  />
  <path
    d="M10.8284 5.29292C10.3679 4.8324 8.41151 4.90899 8.41151 4.90899M10.8284 5.29292C11.289 5.75344 11.2123 7.70985 11.2123 7.70985M10.8284 5.29292L8.70712 7.41423"
    stroke="currentColor"
    stroke-linecap="round"
    stroke-linejoin="round"
  />
</svg>