<svg viewBox="0 0 16 16" fill="none" xmlns="http://www.w3.org/2000/svg">
  <path
    d="M14.5 10.75V11.5C14.5 13.1569 13.1569 14.5 11.5 14.5H7M14.5 10.75V7.5C14.5 5.84315 13.1569 4.5 11.5 4.5H7.5C5.84315 4.5 4.5 5.84315 4.5 7.5V12C4.5 13.3807 5.61929 14.5 7 14.5M14.5 10.75C12.6897 9.39231 10.1106 9.8341 8.85542 11.7169L7 14.5"
    stroke="currentColor"
    stroke-linecap="round"
  />
  <path
    d="M11.5 3C11.5 2.17157 10.8284 1.5 10 1.5H4.5C2.84315 1.5 1.5 2.84315 1.5 4.5V11C1.5 11.8284 2.17157 12.5 3 12.5"
    stroke="currentColor"
    stroke-linecap="round"
  />
  <path
    d="M7.5 8.5C8.05228 8.5 8.5 8.05228 8.5 7.5C8.5 6.94772 8.05228 6.5 7.5 6.5C6.94772 6.5 6.5 6.94772 6.5 7.5C6.5 8.05228 6.94772 8.5 7.5 8.5Z"
    fill="currentColor"
    stroke-linecap="round"
    
  />
</svg>
